# xmcd CD database file
#
# Track frame offsets:
#	182
#	15945
#	36777
#	58657
#	79470
#	96770
#	114557
#	133242
#	152437
#	171145
#
# Disc length: 2554 seconds
#
# Revision: 4
# Processed by: cddbd v1.5.1PL0 Copyright (c) Steve Scherf et al.
# Submitted via: CDex 1.51
#
DISCID=7809f80a
DTITLE=周慧敏 - 熱・敏
DYEAR=1996
DGENRE=Pop
TTITLE0=私奔
TTITLE1=也許應該分手了
TTITLE2=出嫁的清晨
TTITLE3=C'est la vie
TTITLE4=情不必擁有
TTITLE5=毎一次遠行
TTITLE6=古老病態
TTITLE7=為イ尓
TTITLE8=Am I really in love
TTITLE9=稀客
EXTD=Cantonese, 1996, track names translated to English YEAR: 1996
EXTT0=
EXTT1=
EXTT2=
EXTT3=
EXTT4=
EXTT5=
EXTT6=
EXTT7=
EXTT8=
EXTT9=
PLAYORDER=
